<svg xmlns="http://www.w3.org/2000/svg" viewBox="0 0 64 64" role="img" aria-label="report">
<defs>
 <linearGradient id="bg" x1="0" y1="0" x2="1" y2="1"><stop stop-color="#07150e"/><stop offset="1" stop-color="#0b2317"/></linearGradient>
 <linearGradient id="gold" x1="0" y1="0" x2="1" y2="1"><stop stop-color="#ffe57a"/><stop offset="1" stop-color="#e89d22"/></linearGradient>
 <linearGradient id="cyan" x1="0" y1="0" x2="1" y2="1"><stop stop-color="#70f5ff"/><stop offset="1" stop-color="#2a78ff"/></linearGradient>
 <linearGradient id="green" x1="0" y1="0" x2="1" y2="1"><stop stop-color="#b9ff7a"/><stop offset="1" stop-color="#23b95e"/></linearGradient>
 <linearGradient id="violet" x1="0" y1="0" x2="1" y2="1"><stop stop-color="#d59cff"/><stop offset="1" stop-color="#6f5cff"/></linearGradient>
 <linearGradient id="red" x1="0" y1="0" x2="1" y2="1"><stop stop-color="#ff8a68"/><stop offset="1" stop-color="#e51f3e"/></linearGradient>
 <filter id="glow"><feGaussianBlur stdDeviation="1.2" result="b"/><feMerge><feMergeNode in="b"/><feMergeNode in="SourceGraphic"/></feMerge></filter>
</defs>
<rect x="2" y="2" width="60" height="60" rx="15" fill="url(#bg)" stroke="#31543c" stroke-width="1.2"/>
<path d="M20 42V29c0-8 5-14 12-14s12 6 12 14v13z" fill="url(#red)" stroke="#ffb18f" stroke-width="1.3" filter="url(#glow)"/>
<rect x="16" y="42" width="32" height="7" rx="3" fill="#8e2032" stroke="#f08a73"/>
<path d="M32 9V5M15 16l-5-5M49 16l5-5M12 31H6M58 31h-6" stroke="#ff8e69" stroke-width="2.3" stroke-linecap="round"/>
</svg>